<?xml version="1.0" encoding="UTF-8" standalone="no"?>
<svg
   xmlns:dc="http://purl.org/dc/elements/1.1/"
   xmlns:cc="http://creativecommons.org/ns#"
   xmlns:rdf="http://www.w3.org/1999/02/22-rdf-syntax-ns#"
   xmlns:svg="http://www.w3.org/2000/svg"
   xmlns="http://www.w3.org/2000/svg"
   viewBox="0 0 1440 489.60001"
   height="489.60001"
   width="1440"
   xml:space="preserve"
   id="svg2"
   version="1.1"><metadata
     id="metadata8"><rdf:RDF><cc:Work
         rdf:about=""><dc:format>image/svg+xml</dc:format><dc:type
           rdf:resource="http://purl.org/dc/dcmitype/StillImage" /><dc:title></dc:title></cc:Work></rdf:RDF></metadata><defs
     id="defs6"><clipPath
       clipPathUnits="userSpaceOnUse"
       id="clipPath18"><path
         d="M 0,367.2 H 1080 V 0 H 0 Z"
         id="path16" /></clipPath></defs><g
     id="g10"
     transform="matrix(1.3333333,0,0,-1.3333333,0,489.6)"><g
       id="g12"><g
         id="g14"
         clip-path="url(#clipPath18)"><path
           d="m -0.033,366.433 h 1080 V -0.766 h -1080 z"
           style="fill:#eaf2f3;fill-opacity:1;fill-rule:nonzero;stroke:none"
           id="path20" /><path
           d="m -0.033,366.433 h 1080 V -0.766 h -1080 z"
           style="fill:#ffffff;fill-opacity:1;fill-rule:nonzero;stroke:none"
           id="path22" /><path
           d="m -0.033,-0.767 v 367.2 h 1080 v -367.2 h -1080"
           style="fill:none;stroke:#ffffff;stroke-width:0.73400003;stroke-linecap:butt;stroke-linejoin:miter;stroke-miterlimit:10;stroke-dasharray:none;stroke-opacity:1"
           id="path24" /><path
           d="m 48.061,319.96 h 983.813 V 61.198 H 48.061 Z"
           style="fill:#ffffff;fill-opacity:1;fill-rule:nonzero;stroke:none"
           id="path26" /><path
           d="M 48.061,61.198 V 319.96 h 983.812 V 61.198 H 48.061"
           style="fill:none;stroke:#ffffff;stroke-width:0.73400003;stroke-linecap:butt;stroke-linejoin:miter;stroke-miterlimit:10;stroke-dasharray:none;stroke-opacity:1"
           id="path28" /><path
           d="M 1031.873,61.198 V 319.96 M 949.895,61.198 V 319.96 M 867.916,61.198 V 319.96 M 785.937,61.198 V 319.96 M 703.924,61.198 V 319.96 M 621.945,61.198 V 319.96 M 539.967,61.198 V 319.96 M 457.988,61.198 V 319.96 M 376.009,61.198 V 319.96 M 293.997,61.198 V 319.96 M 212.018,61.198 V 319.96 M 130.039,61.198 V 319.96 m -81.978,0 h 983.812 M 48.061,233.694 h 983.812 M 48.061,147.463 h 983.812 M 48.061,61.198 h 983.812 M 48.061,319.96 h 983.812 M 48.061,233.694 h 983.812 M 48.061,147.463 h 983.812 M 48.061,61.198 h 983.812"
           style="fill:none;stroke:#000000;stroke-width:0.12;stroke-linecap:butt;stroke-linejoin:miter;stroke-miterlimit:10;stroke-dasharray:none;stroke-opacity:1"
           id="path30" /><path
           d="m 509.888,298.394 c 0,1.546 -1.255,2.8 -2.801,2.8 -1.546,0 -2.801,-1.254 -2.801,-2.8 0,-1.547 1.255,-2.801 2.801,-2.801 1.546,0 2.801,1.254 2.801,2.801"
           style="fill:#000000;fill-opacity:1;fill-rule:nonzero;stroke:none"
           id="path32" /><path
           d="m 509.888,298.394 c 0,1.546 -1.255,2.8 -2.801,2.8 -1.546,0 -2.801,-1.254 -2.801,-2.8 0,-1.547 1.255,-2.801 2.801,-2.801 1.546,0 2.801,1.254 2.801,2.801"
           style="fill:none;stroke:#000000;stroke-width:1.102;stroke-linecap:butt;stroke-linejoin:miter;stroke-miterlimit:10;stroke-dasharray:none;stroke-opacity:1"
           id="path34" /><path
           d="m 575.528,147.434 c 0,1.545 -1.255,2.8 -2.801,2.8 -1.546,0 -2.801,-1.255 -2.801,-2.8 0,-1.547 1.255,-2.802 2.801,-2.802 1.546,0 2.801,1.255 2.801,2.802"
           style="fill:#000000;fill-opacity:1;fill-rule:nonzero;stroke:none"
           id="path36" /><path
           d="m 575.528,147.434 c 0,1.545 -1.255,2.8 -2.801,2.8 -1.546,0 -2.801,-1.255 -2.801,-2.8 0,-1.547 1.255,-2.802 2.801,-2.802 1.546,0 2.801,1.255 2.801,2.802"
           style="fill:none;stroke:#000000;stroke-width:1.102;stroke-linecap:butt;stroke-linejoin:miter;stroke-miterlimit:10;stroke-dasharray:none;stroke-opacity:1"
           id="path38" /><path
           d="m 591.968,147.434 c 0,1.545 -1.255,2.8 -2.801,2.8 -1.547,0 -2.802,-1.255 -2.802,-2.8 0,-1.547 1.255,-2.802 2.802,-2.802 1.546,0 2.801,1.255 2.801,2.802"
           style="fill:#000000;fill-opacity:1;fill-rule:nonzero;stroke:none"
           id="path40" /><path
           d="m 591.968,147.434 c 0,1.545 -1.255,2.8 -2.801,2.8 -1.547,0 -2.802,-1.255 -2.802,-2.8 0,-1.547 1.255,-2.802 2.802,-2.802 1.546,0 2.801,1.255 2.801,2.802"
           style="fill:none;stroke:#000000;stroke-width:1.102;stroke-linecap:butt;stroke-linejoin:miter;stroke-miterlimit:10;stroke-dasharray:none;stroke-opacity:1"
           id="path42" /><path
           d="m 673.928,104.354 c 0,1.545 -1.255,2.8 -2.801,2.8 -1.547,0 -2.802,-1.255 -2.802,-2.8 0,-1.547 1.255,-2.802 2.802,-2.802 1.546,0 2.801,1.255 2.801,2.802"
           style="fill:#000000;fill-opacity:1;fill-rule:nonzero;stroke:none"
           id="path44" /><path
           d="m 673.928,104.354 c 0,1.545 -1.255,2.8 -2.801,2.8 -1.547,0 -2.802,-1.255 -2.802,-2.8 0,-1.547 1.255,-2.802 2.802,-2.802 1.546,0 2.801,1.255 2.801,2.802"
           style="fill:none;stroke:#000000;stroke-width:1.102;stroke-linecap:butt;stroke-linejoin:miter;stroke-miterlimit:10;stroke-dasharray:none;stroke-opacity:1"
           id="path46" /><path
           d="m 723.128,61.153 c 0,1.546 -1.255,2.801 -2.801,2.801 -1.547,0 -2.802,-1.255 -2.802,-2.801 0,-1.546 1.255,-2.801 2.802,-2.801 1.546,0 2.801,1.255 2.801,2.801"
           style="fill:#000000;fill-opacity:1;fill-rule:nonzero;stroke:none"
           id="path48" /><path
           d="m 723.128,61.153 c 0,1.546 -1.255,2.801 -2.801,2.801 -1.547,0 -2.802,-1.255 -2.802,-2.801 0,-1.546 1.255,-2.801 2.802,-2.801 1.546,0 2.801,1.255 2.801,2.801"
           style="fill:none;stroke:#000000;stroke-width:1.102;stroke-linecap:butt;stroke-linejoin:miter;stroke-miterlimit:10;stroke-dasharray:none;stroke-opacity:1"
           id="path50" /><path
           d="m 739.568,61.153 c 0,1.546 -1.255,2.801 -2.801,2.801 -1.546,0 -2.801,-1.255 -2.801,-2.801 0,-1.546 1.255,-2.801 2.801,-2.801 1.546,0 2.801,1.255 2.801,2.801"
           style="fill:#000000;fill-opacity:1;fill-rule:nonzero;stroke:none"
           id="path52" /><path
           d="m 739.568,61.153 c 0,1.546 -1.255,2.801 -2.801,2.801 -1.546,0 -2.801,-1.255 -2.801,-2.801 0,-1.546 1.255,-2.801 2.801,-2.801 1.546,0 2.801,1.255 2.801,2.801"
           style="fill:none;stroke:#000000;stroke-width:1.102;stroke-linecap:butt;stroke-linejoin:miter;stroke-miterlimit:10;stroke-dasharray:none;stroke-opacity:1"
           id="path54" /><path
           d="m 739.568,61.153 c 0,1.546 -1.255,2.801 -2.801,2.801 -1.546,0 -2.801,-1.255 -2.801,-2.801 0,-1.546 1.255,-2.801 2.801,-2.801 1.546,0 2.801,1.255 2.801,2.801"
           style="fill:#000000;fill-opacity:1;fill-rule:nonzero;stroke:none"
           id="path56" /><path
           d="m 739.568,61.153 c 0,1.546 -1.255,2.801 -2.801,2.801 -1.546,0 -2.801,-1.255 -2.801,-2.801 0,-1.546 1.255,-2.801 2.801,-2.801 1.546,0 2.801,1.255 2.801,2.801"
           style="fill:none;stroke:#000000;stroke-width:1.102;stroke-linecap:butt;stroke-linejoin:miter;stroke-miterlimit:10;stroke-dasharray:none;stroke-opacity:1"
           id="path58" /><path
           d="m 739.568,61.153 c 0,1.546 -1.255,2.801 -2.801,2.801 -1.546,0 -2.801,-1.255 -2.801,-2.801 0,-1.546 1.255,-2.801 2.801,-2.801 1.546,0 2.801,1.255 2.801,2.801"
           style="fill:#000000;fill-opacity:1;fill-rule:nonzero;stroke:none"
           id="path60" /><path
           d="m 739.568,61.153 c 0,1.546 -1.255,2.801 -2.801,2.801 -1.546,0 -2.801,-1.255 -2.801,-2.801 0,-1.546 1.255,-2.801 2.801,-2.801 1.546,0 2.801,1.255 2.801,2.801"
           style="fill:none;stroke:#000000;stroke-width:1.102;stroke-linecap:butt;stroke-linejoin:miter;stroke-miterlimit:10;stroke-dasharray:none;stroke-opacity:1"
           id="path62" /><path
           d="m 755.888,61.153 c 0,1.546 -1.255,2.801 -2.801,2.801 -1.546,0 -2.802,-1.255 -2.802,-2.801 0,-1.546 1.256,-2.801 2.802,-2.801 1.546,0 2.801,1.255 2.801,2.801"
           style="fill:#000000;fill-opacity:1;fill-rule:nonzero;stroke:none"
           id="path64" /><path
           d="m 755.888,61.153 c 0,1.546 -1.255,2.801 -2.801,2.801 -1.546,0 -2.802,-1.255 -2.802,-2.801 0,-1.546 1.256,-2.801 2.802,-2.801 1.546,0 2.801,1.255 2.801,2.801"
           style="fill:none;stroke:#000000;stroke-width:1.102;stroke-linecap:butt;stroke-linejoin:miter;stroke-miterlimit:10;stroke-dasharray:none;stroke-opacity:1"
           id="path66" /><path
           d="m 772.328,61.153 c 0,1.546 -1.255,2.801 -2.802,2.801 -1.546,0 -2.8,-1.255 -2.8,-2.801 0,-1.546 1.254,-2.801 2.8,-2.801 1.547,0 2.802,1.255 2.802,2.801"
           style="fill:#000000;fill-opacity:1;fill-rule:nonzero;stroke:none"
           id="path68" /><path
           d="m 772.328,61.153 c 0,1.546 -1.255,2.801 -2.802,2.801 -1.546,0 -2.8,-1.255 -2.8,-2.801 0,-1.546 1.254,-2.801 2.8,-2.801 1.547,0 2.802,1.255 2.802,2.801"
           style="fill:none;stroke:#000000;stroke-width:1.102;stroke-linecap:butt;stroke-linejoin:miter;stroke-miterlimit:10;stroke-dasharray:none;stroke-opacity:1"
           id="path70" /><path
           d="m 788.768,147.434 c 0,1.545 -1.255,2.8 -2.801,2.8 -1.546,0 -2.801,-1.255 -2.801,-2.8 0,-1.547 1.255,-2.802 2.801,-2.802 1.546,0 2.801,1.255 2.801,2.802"
           style="fill:#000000;fill-opacity:1;fill-rule:nonzero;stroke:none"
           id="path72" /><path
           d="m 788.768,147.434 c 0,1.545 -1.255,2.8 -2.801,2.8 -1.546,0 -2.801,-1.255 -2.801,-2.8 0,-1.547 1.255,-2.802 2.801,-2.802 1.546,0 2.801,1.255 2.801,2.802"
           style="fill:none;stroke:#000000;stroke-width:1.102;stroke-linecap:butt;stroke-linejoin:miter;stroke-miterlimit:10;stroke-dasharray:none;stroke-opacity:1"
           id="path74" /><path
           d="m 788.768,61.153 c 0,1.546 -1.255,2.801 -2.801,2.801 -1.546,0 -2.801,-1.255 -2.801,-2.801 0,-1.546 1.255,-2.801 2.801,-2.801 1.546,0 2.801,1.255 2.801,2.801"
           style="fill:#000000;fill-opacity:1;fill-rule:nonzero;stroke:none"
           id="path76" /><path
           d="m 788.768,61.153 c 0,1.546 -1.255,2.801 -2.801,2.801 -1.546,0 -2.801,-1.255 -2.801,-2.801 0,-1.546 1.255,-2.801 2.801,-2.801 1.546,0 2.801,1.255 2.801,2.801"
           style="fill:none;stroke:#000000;stroke-width:1.102;stroke-linecap:butt;stroke-linejoin:miter;stroke-miterlimit:10;stroke-dasharray:none;stroke-opacity:1"
           id="path78" /><path
           d="m 788.768,147.434 c 0,1.545 -1.255,2.8 -2.801,2.8 -1.546,0 -2.801,-1.255 -2.801,-2.8 0,-1.547 1.255,-2.802 2.801,-2.802 1.546,0 2.801,1.255 2.801,2.802"
           style="fill:#000000;fill-opacity:1;fill-rule:nonzero;stroke:none"
           id="path80" /><path
           d="m 788.768,147.434 c 0,1.545 -1.255,2.8 -2.801,2.8 -1.546,0 -2.801,-1.255 -2.801,-2.8 0,-1.547 1.255,-2.802 2.801,-2.802 1.546,0 2.801,1.255 2.801,2.802"
           style="fill:none;stroke:#000000;stroke-width:1.102;stroke-linecap:butt;stroke-linejoin:miter;stroke-miterlimit:10;stroke-dasharray:none;stroke-opacity:1"
           id="path82" /><path
           d="m 788.768,61.153 c 0,1.546 -1.255,2.801 -2.801,2.801 -1.546,0 -2.801,-1.255 -2.801,-2.801 0,-1.546 1.255,-2.801 2.801,-2.801 1.546,0 2.801,1.255 2.801,2.801"
           style="fill:#000000;fill-opacity:1;fill-rule:nonzero;stroke:none"
           id="path84" /><path
           d="m 788.768,61.153 c 0,1.546 -1.255,2.801 -2.801,2.801 -1.546,0 -2.801,-1.255 -2.801,-2.801 0,-1.546 1.255,-2.801 2.801,-2.801 1.546,0 2.801,1.255 2.801,2.801"
           style="fill:none;stroke:#000000;stroke-width:1.102;stroke-linecap:butt;stroke-linejoin:miter;stroke-miterlimit:10;stroke-dasharray:none;stroke-opacity:1"
           id="path86" /><path
           d="m 821.528,61.153 c 0,1.546 -1.255,2.801 -2.801,2.801 -1.546,0 -2.801,-1.255 -2.801,-2.801 0,-1.546 1.255,-2.801 2.801,-2.801 1.546,0 2.801,1.255 2.801,2.801"
           style="fill:#000000;fill-opacity:1;fill-rule:nonzero;stroke:none"
           id="path88" /><path
           d="m 821.528,61.153 c 0,1.546 -1.255,2.801 -2.801,2.801 -1.546,0 -2.801,-1.255 -2.801,-2.801 0,-1.546 1.255,-2.801 2.801,-2.801 1.546,0 2.801,1.255 2.801,2.801"
           style="fill:none;stroke:#000000;stroke-width:1.102;stroke-linecap:butt;stroke-linejoin:miter;stroke-miterlimit:10;stroke-dasharray:none;stroke-opacity:1"
           id="path90" /><path
           d="m 837.968,61.153 c 0,1.546 -1.255,2.801 -2.801,2.801 -1.547,0 -2.802,-1.255 -2.802,-2.801 0,-1.546 1.255,-2.801 2.802,-2.801 1.546,0 2.801,1.255 2.801,2.801"
           style="fill:#000000;fill-opacity:1;fill-rule:nonzero;stroke:none"
           id="path92" /><path
           d="m 837.968,61.153 c 0,1.546 -1.255,2.801 -2.801,2.801 -1.547,0 -2.802,-1.255 -2.802,-2.801 0,-1.546 1.255,-2.801 2.802,-2.801 1.546,0 2.801,1.255 2.801,2.801"
           style="fill:none;stroke:#000000;stroke-width:1.102;stroke-linecap:butt;stroke-linejoin:miter;stroke-miterlimit:10;stroke-dasharray:none;stroke-opacity:1"
           id="path94" /><path
           d="m 870.608,61.153 c 0,1.546 -1.254,2.801 -2.801,2.801 -1.546,0 -2.801,-1.255 -2.801,-2.801 0,-1.546 1.255,-2.801 2.801,-2.801 1.547,0 2.801,1.255 2.801,2.801"
           style="fill:#000000;fill-opacity:1;fill-rule:nonzero;stroke:none"
           id="path96" /><path
           d="m 870.608,61.153 c 0,1.546 -1.254,2.801 -2.801,2.801 -1.546,0 -2.801,-1.255 -2.801,-2.801 0,-1.546 1.255,-2.801 2.801,-2.801 1.547,0 2.801,1.255 2.801,2.801"
           style="fill:none;stroke:#000000;stroke-width:1.102;stroke-linecap:butt;stroke-linejoin:miter;stroke-miterlimit:10;stroke-dasharray:none;stroke-opacity:1"
           id="path98" /><path
           d="m 870.608,147.434 c 0,1.545 -1.254,2.8 -2.801,2.8 -1.546,0 -2.801,-1.255 -2.801,-2.8 0,-1.547 1.255,-2.802 2.801,-2.802 1.547,0 2.801,1.255 2.801,2.802"
           style="fill:#000000;fill-opacity:1;fill-rule:nonzero;stroke:none"
           id="path100" /><path
           d="m 870.608,147.434 c 0,1.545 -1.254,2.8 -2.801,2.8 -1.546,0 -2.801,-1.255 -2.801,-2.8 0,-1.547 1.255,-2.802 2.801,-2.802 1.547,0 2.801,1.255 2.801,2.802"
           style="fill:none;stroke:#000000;stroke-width:1.102;stroke-linecap:butt;stroke-linejoin:miter;stroke-miterlimit:10;stroke-dasharray:none;stroke-opacity:1"
           id="path102" /><path
           d="m 887.048,61.153 c 0,1.546 -1.255,2.801 -2.801,2.801 -1.547,0 -2.802,-1.255 -2.802,-2.801 0,-1.546 1.255,-2.801 2.802,-2.801 1.546,0 2.801,1.255 2.801,2.801"
           style="fill:#000000;fill-opacity:1;fill-rule:nonzero;stroke:none"
           id="path104" /><path
           d="m 887.048,61.153 c 0,1.546 -1.255,2.801 -2.801,2.801 -1.547,0 -2.802,-1.255 -2.802,-2.801 0,-1.546 1.255,-2.801 2.802,-2.801 1.546,0 2.801,1.255 2.801,2.801"
           style="fill:none;stroke:#000000;stroke-width:1.102;stroke-linecap:butt;stroke-linejoin:miter;stroke-miterlimit:10;stroke-dasharray:none;stroke-opacity:1"
           id="path106" /><path
           d="m 887.048,61.153 c 0,1.546 -1.255,2.801 -2.801,2.801 -1.547,0 -2.802,-1.255 -2.802,-2.801 0,-1.546 1.255,-2.801 2.802,-2.801 1.546,0 2.801,1.255 2.801,2.801"
           style="fill:#000000;fill-opacity:1;fill-rule:nonzero;stroke:none"
           id="path108" /><path
           d="m 887.048,61.153 c 0,1.546 -1.255,2.801 -2.801,2.801 -1.547,0 -2.802,-1.255 -2.802,-2.801 0,-1.546 1.255,-2.801 2.802,-2.801 1.546,0 2.801,1.255 2.801,2.801"
           style="fill:none;stroke:#000000;stroke-width:1.102;stroke-linecap:butt;stroke-linejoin:miter;stroke-miterlimit:10;stroke-dasharray:none;stroke-opacity:1"
           id="path110" /><path
           d="m 919.928,61.153 c 0,1.546 -1.255,2.801 -2.801,2.801 -1.547,0 -2.802,-1.255 -2.802,-2.801 0,-1.546 1.255,-2.801 2.802,-2.801 1.546,0 2.801,1.255 2.801,2.801"
           style="fill:#000000;fill-opacity:1;fill-rule:nonzero;stroke:none"
           id="path112" /><path
           d="m 919.928,61.153 c 0,1.546 -1.255,2.801 -2.801,2.801 -1.547,0 -2.802,-1.255 -2.802,-2.801 0,-1.546 1.255,-2.801 2.802,-2.801 1.546,0 2.801,1.255 2.801,2.801"
           style="fill:none;stroke:#000000;stroke-width:1.102;stroke-linecap:butt;stroke-linejoin:miter;stroke-miterlimit:10;stroke-dasharray:none;stroke-opacity:1"
           id="path114" /><path
           d="m 936.368,61.153 c 0,1.546 -1.255,2.801 -2.802,2.801 -1.545,0 -2.8,-1.255 -2.8,-2.801 0,-1.546 1.255,-2.801 2.8,-2.801 1.547,0 2.802,1.255 2.802,2.801"
           style="fill:#000000;fill-opacity:1;fill-rule:nonzero;stroke:none"
           id="path116" /><path
           d="m 936.368,61.153 c 0,1.546 -1.255,2.801 -2.802,2.801 -1.545,0 -2.8,-1.255 -2.8,-2.801 0,-1.546 1.255,-2.801 2.8,-2.801 1.547,0 2.802,1.255 2.802,2.801"
           style="fill:none;stroke:#000000;stroke-width:1.102;stroke-linecap:butt;stroke-linejoin:miter;stroke-miterlimit:10;stroke-dasharray:none;stroke-opacity:1"
           id="path118" /><path
           d="m 969.008,61.153 c 0,1.546 -1.255,2.801 -2.801,2.801 -1.547,0 -2.802,-1.255 -2.802,-2.801 0,-1.546 1.255,-2.801 2.802,-2.801 1.546,0 2.801,1.255 2.801,2.801"
           style="fill:#000000;fill-opacity:1;fill-rule:nonzero;stroke:none"
           id="path120" /><path
           d="m 969.008,61.153 c 0,1.546 -1.255,2.801 -2.801,2.801 -1.547,0 -2.802,-1.255 -2.802,-2.801 0,-1.546 1.255,-2.801 2.802,-2.801 1.546,0 2.801,1.255 2.801,2.801"
           style="fill:none;stroke:#000000;stroke-width:1.102;stroke-linecap:butt;stroke-linejoin:miter;stroke-miterlimit:10;stroke-dasharray:none;stroke-opacity:1"
           id="path122" /><path
           d="M 1031.873,61.198 V 319.96"
           style="fill:none;stroke:#000000;stroke-width:0.73400003;stroke-linecap:butt;stroke-linejoin:miter;stroke-miterlimit:10;stroke-dasharray:none;stroke-opacity:1"
           id="path124" /><text
           transform="matrix(1,0,0,-1,1039.5342,58.5313)"
           style="font-size:11px;-inkscape-font-specification:Guardi LT Std;writing-mode:lr-tb;font-family:Guardi LT Std;fill-opacity:1;fill-rule:nonzero;stroke:none;font-stretch:normal;font-variant:normal;font-weight:normal;fill:#000000"
           id="text128"><tspan
             x="0"
             y="0"
             id="tspan126">0</tspan></text>
<text
           transform="matrix(1,0,0,-1,1039.5342,144.7979)"
           style="font-size:7.66130018px;-inkscape-font-specification:Guardi LT Std;writing-mode:lr-tb;font-family:Guardi LT Std;fill-opacity:1;fill-rule:nonzero;stroke:none;font-stretch:normal;font-variant:normal;font-weight:normal;fill:#000000"
           id="text132"><tspan
             x="0"
             y="0"
             id="tspan130">4</tspan></text>
<text
           transform="matrix(1,0,0,-1,1039.5342,231.0283)"
           style="font-size:7.66130018px;-inkscape-font-specification:Guardi LT Std;writing-mode:lr-tb;font-family:Guardi LT Std;fill-opacity:1;fill-rule:nonzero;stroke:none;font-stretch:normal;font-variant:normal;font-weight:normal;fill:#000000"
           id="text136"><tspan
             x="0"
             y="0"
             id="tspan134">8</tspan></text>
<text
           transform="matrix(1,0,0,-1,1039.5342,317.2939)"
           style="font-size:7.66130018px;-inkscape-font-specification:Guardi LT Std;writing-mode:lr-tb;font-family:Guardi LT Std;fill-opacity:1;fill-rule:nonzero;stroke:none;font-stretch:normal;font-variant:normal;font-weight:normal;fill:#000000"
           id="text140"><tspan
             x="0"
             y="0"
             id="tspan138">12</tspan></text>
<path
           d="M 48.061,61.198 V 319.96"
           style="fill:none;stroke:#000000;stroke-width:0.73400003;stroke-linecap:butt;stroke-linejoin:miter;stroke-miterlimit:10;stroke-dasharray:none;stroke-opacity:1"
           id="path142" /><text
           transform="matrix(1,0,0,-1,36.4692,58.5313)"
           style="font-size:11px;-inkscape-font-specification:Guardi LT Std;writing-mode:lr-tb;font-family:Guardi LT Std;fill-opacity:1;fill-rule:nonzero;stroke:none;font-stretch:normal;font-variant:normal;font-weight:normal;fill:#000000"
           id="text146"><tspan
             x="0"
             y="0"
             id="tspan144">0</tspan></text>
<text
           transform="matrix(1,0,0,-1,36.4692,144.7979)"
           style="font-size:11px;-inkscape-font-specification:Guardi LT Std;writing-mode:lr-tb;font-family:Guardi LT Std;fill-opacity:1;fill-rule:nonzero;stroke:none;font-stretch:normal;font-variant:normal;font-weight:normal;fill:#000000"
           id="text150"><tspan
             x="0"
             y="0"
             id="tspan148">4</tspan></text>
<text
           transform="matrix(1,0,0,-1,36.4692,231.0283)"
           style="font-size:11px;-inkscape-font-specification:Guardi LT Std;writing-mode:lr-tb;font-family:Guardi LT Std;fill-opacity:1;fill-rule:nonzero;stroke:none;font-stretch:normal;font-variant:normal;font-weight:normal;fill:#000000"
           id="text154"><tspan
             x="0"
             y="0"
             id="tspan152">8</tspan></text>
<text
           transform="matrix(1,0,0,-1,32.5386,317.2939)"
           style="font-size:11px;-inkscape-font-specification:Guardi LT Std;writing-mode:lr-tb;font-family:Guardi LT Std;fill-opacity:1;fill-rule:nonzero;stroke:none;font-stretch:normal;font-variant:normal;font-weight:normal;fill:#000000"
           id="text158"><tspan
             x="0"
             y="0"
             id="tspan156">12</tspan></text>
<text
           transform="matrix(1,0,0,-1,42.9116,45.6387)"
           style="font-size:11px;-inkscape-font-specification:Guardi LT Std;writing-mode:lr-tb;font-family:Guardi LT Std;fill-opacity:1;fill-rule:nonzero;stroke:none;font-stretch:normal;font-variant:normal;font-weight:normal;fill:#000000"
           id="text162"><tspan
             x="0"
             y="0"
             id="tspan160">25°</tspan></text>
<text
           transform="matrix(1,0,0,-1,124.8911,45.6387)"
           style="font-size:11px;-inkscape-font-specification:Guardi LT Std;writing-mode:lr-tb;font-family:Guardi LT Std;fill-opacity:1;fill-rule:nonzero;stroke:none;font-stretch:normal;font-variant:normal;font-weight:normal;fill:#000000"
           id="text166"><tspan
             x="0"
             y="0"
             id="tspan164">30°</tspan></text>
<text
           transform="matrix(1,0,0,-1,206.8696,45.6387)"
           style="font-size:11px;-inkscape-font-specification:Guardi LT Std;writing-mode:lr-tb;font-family:Guardi LT Std;fill-opacity:1;fill-rule:nonzero;stroke:none;font-stretch:normal;font-variant:normal;font-weight:normal;fill:#000000"
           id="text170"><tspan
             x="0"
             y="0"
             id="tspan168">35°</tspan></text>
<text
           transform="matrix(1,0,0,-1,288.8481,45.6387)"
           style="font-size:11px;-inkscape-font-specification:Guardi LT Std;writing-mode:lr-tb;font-family:Guardi LT Std;fill-opacity:1;fill-rule:nonzero;stroke:none;font-stretch:normal;font-variant:normal;font-weight:normal;fill:#000000"
           id="text174"><tspan
             x="0"
             y="0"
             id="tspan172">40°</tspan></text>
<text
           transform="matrix(1,0,0,-1,370.8608,45.6387)"
           style="font-size:11px;-inkscape-font-specification:Guardi LT Std;writing-mode:lr-tb;font-family:Guardi LT Std;fill-opacity:1;fill-rule:nonzero;stroke:none;font-stretch:normal;font-variant:normal;font-weight:normal;fill:#000000"
           id="text178"><tspan
             x="0"
             y="0"
             id="tspan176">45°</tspan></text>
<text
           transform="matrix(1,0,0,-1,452.8398,45.6387)"
           style="font-size:11px;-inkscape-font-specification:Guardi LT Std;writing-mode:lr-tb;font-family:Guardi LT Std;fill-opacity:1;fill-rule:nonzero;stroke:none;font-stretch:normal;font-variant:normal;font-weight:normal;fill:#000000"
           id="text182"><tspan
             x="0"
             y="0"
             id="tspan180">50°</tspan></text>
<text
           transform="matrix(1,0,0,-1,534.8184,45.6387)"
           style="font-size:11px;-inkscape-font-specification:Guardi LT Std;writing-mode:lr-tb;font-family:Guardi LT Std;fill-opacity:1;fill-rule:nonzero;stroke:none;font-stretch:normal;font-variant:normal;font-weight:normal;fill:#000000"
           id="text186"><tspan
             x="0"
             y="0"
             id="tspan184">55°</tspan></text>
<text
           transform="matrix(1,0,0,-1,616.7979,45.6387)"
           style="font-size:11px;-inkscape-font-specification:Guardi LT Std;writing-mode:lr-tb;font-family:Guardi LT Std;fill-opacity:1;fill-rule:nonzero;stroke:none;font-stretch:normal;font-variant:normal;font-weight:normal;fill:#000000"
           id="text190"><tspan
             x="0"
             y="0"
             id="tspan188">60°</tspan></text>
<text
           transform="matrix(1,0,0,-1,698.7764,45.6387)"
           style="font-size:11px;-inkscape-font-specification:Guardi LT Std;writing-mode:lr-tb;font-family:Guardi LT Std;fill-opacity:1;fill-rule:nonzero;stroke:none;font-stretch:normal;font-variant:normal;font-weight:normal;fill:#000000"
           id="text194"><tspan
             x="0"
             y="0"
             id="tspan192">65°</tspan></text>
<text
           transform="matrix(1,0,0,-1,780.7891,45.6387)"
           style="font-size:11px;-inkscape-font-specification:Guardi LT Std;writing-mode:lr-tb;font-family:Guardi LT Std;fill-opacity:1;fill-rule:nonzero;stroke:none;font-stretch:normal;font-variant:normal;font-weight:normal;fill:#000000"
           id="text198"><tspan
             x="0"
             y="0"
             id="tspan196">70°</tspan></text>
<text
           transform="matrix(1,0,0,-1,862.7676,45.6387)"
           style="font-size:11px;-inkscape-font-specification:Guardi LT Std;writing-mode:lr-tb;font-family:Guardi LT Std;fill-opacity:1;fill-rule:nonzero;stroke:none;font-stretch:normal;font-variant:normal;font-weight:normal;fill:#000000"
           id="text202"><tspan
             x="0"
             y="0"
             id="tspan200">75°</tspan></text>
<text
           transform="matrix(1,0,0,-1,944.7461,45.6387)"
           style="font-size:11px;-inkscape-font-specification:Guardi LT Std;writing-mode:lr-tb;font-family:Guardi LT Std;fill-opacity:1;fill-rule:nonzero;stroke:none;font-stretch:normal;font-variant:normal;font-weight:normal;fill:#000000"
           id="text206"><tspan
             x="0"
             y="0"
             id="tspan204">80°</tspan></text>
<text
           transform="matrix(1,0,0,-1,1026.7246,45.6387)"
           style="font-size:11px;-inkscape-font-specification:Guardi LT Std;writing-mode:lr-tb;font-family:Guardi LT Std;fill-opacity:1;fill-rule:nonzero;stroke:none;font-stretch:normal;font-variant:normal;font-weight:normal;fill:#000000"
           id="text210"><tspan
             x="0"
             y="0"
             id="tspan208">85°</tspan></text>
<text
           transform="matrix(1,0,0,-1,351.2729,13.875)"
           style="font-size:18.93350029px;-inkscape-font-specification:Guardi LT Std;writing-mode:lr-tb;font-family:Guardi LT Std;fill-opacity:1;fill-rule:nonzero;stroke:none;font-stretch:normal;font-variant:normal;font-weight:normal;fill:#000000"
           id="text214"><tspan
             x="0"
             y="0"
             id="tspan212">Temperature (°F) of field joints at time of launch</tspan></text>
<text
           transform="matrix(1,0,0,-1,50.2539,347.4771)"
           style="font-size:12.80200005px;-inkscape-font-specification:Guardi LT Std;writing-mode:lr-tb;font-family:Guardi LT Std;fill-opacity:1;fill-rule:nonzero;stroke:none;font-stretch:normal;font-variant:normal;font-weight:normal;fill:#000000"
           id="text218"><tspan
             x="0"
             y="0"
             id="tspan216">O−ring damage</tspan></text>
<text
           transform="matrix(1,0,0,-1,50.2539,334.6768)"
           style="font-size:12.80200005px;-inkscape-font-specification:Guardi LT Std;writing-mode:lr-tb;font-family:Guardi LT Std;fill-opacity:1;fill-rule:nonzero;stroke:none;font-stretch:normal;font-variant:normal;font-weight:normal;fill:#000000"
           id="text222"><tspan
             x="0"
             y="0"
             id="tspan220">index, each launch</tspan></text>
<text
           transform="matrix(1,0,0,-1,480.3335,281.5332)"
           style="font-size:11px;-inkscape-font-specification:Guardi LT Std;writing-mode:lr-tb;font-family:Guardi LT Std;fill-opacity:1;fill-rule:nonzero;stroke:none;font-stretch:normal;font-variant:normal;font-weight:normal;fill:#000000"
           id="text226"><tspan
             x="0"
             y="0"
             id="tspan224">SRM 15</tspan></text>
<text
           transform="matrix(1,0,0,-1,878.334,156.1992)"
           style="font-size:11px;-inkscape-font-specification:Guardi LT Std;writing-mode:lr-tb;font-family:Guardi LT Std;fill-opacity:1;fill-rule:nonzero;stroke:none;font-stretch:normal;font-variant:normal;font-weight:normal;fill:#000000"
           id="text230"><tspan
             x="0"
             y="0"
             id="tspan228">SRM 22</tspan></text>
<path
           d="M 119,65.653 H 57 v -8.907 h 62 z"
           style="fill:#8c8c8c;fill-opacity:1;fill-rule:nonzero;stroke:none"
           id="path232" /><text
           transform="matrix(1,0,0,-1,154.3335,122.8672)"
           style="font-size:11px;-inkscape-font-specification:Guardi LT Std;writing-mode:lr-tb;font-family:Guardi LT Std;fill-opacity:1;fill-rule:nonzero;stroke:none;font-stretch:normal;font-variant:normal;font-weight:normal;fill:#000000"
           id="text236"><tspan
             x="0"
             y="0"
             id="tspan234"></tspan></text>
<text
           transform="matrix(1,0,0,-1,164.8711,122.8672)"
           style="font-size:11px;-inkscape-font-specification:Guardi LT Std;writing-mode:lr-tb;font-family:Guardi LT Std;fill-opacity:1;fill-rule:nonzero;stroke:none;font-stretch:normal;font-variant:normal;font-weight:normal;fill:#000000"
           id="text240"><tspan
             x="0"
             y="0"
             id="tspan238">°-</tspan></text>
<text
           transform="matrix(1,0,0,-1,173.583,122.8672)"
           style="font-size:11px;-inkscape-font-specification:Guardi LT Std;writing-mode:lr-tb;font-family:Guardi LT Std;fill-opacity:1;fill-rule:nonzero;stroke:none;font-stretch:normal;font-variant:normal;font-weight:normal;fill:#000000"
           id="text244"><tspan
             x="0"
             y="0"
             id="tspan242"></tspan></text>
<text
           transform="matrix(1,0,0,-1,183.9009,122.8672)"
           style="font-size:11px;-inkscape-font-specification:Guardi LT Std;writing-mode:lr-tb;font-family:Guardi LT Std;fill-opacity:1;fill-rule:nonzero;stroke:none;font-stretch:normal;font-variant:normal;font-weight:normal;fill:#000000"
           id="text248"><tspan
             x="0"
             y="0"
             id="tspan246">° range of forecasted temperatures</tspan></text>
<text
           transform="matrix(1,0,0,-1,154.3335,109.667)"
           style="font-variant:normal;font-weight:normal;font-stretch:normal;font-size:11px;font-family:'Guardi LT Std';-inkscape-font-specification:'Guardi LT Std';writing-mode:lr-tb;fill:#000000;fill-opacity:1;fill-rule:nonzero;stroke:none"
           id="text252"><tspan
             x="0"
             y="0"
             id="tspan250">(as of January 7 </tspan></text>
<text
           transform="matrix(1,0,0,-1,215.3721,109.667)"
           style="font-variant:normal;font-weight:normal;font-stretch:normal;font-size:11px;font-family:'Guardi LT Std';-inkscape-font-specification:'Guardi LT Std';writing-mode:lr-tb;fill:#000000;fill-opacity:1;fill-rule:nonzero;stroke:none"
           id="text256"><tspan
             x="0"
             y="9.7019997"
             id="tspan254" /></text>
<text
           transform="matrix(1,0,0,-1,225.6895,109.667)"
           style="font-size:11px;-inkscape-font-specification:Guardi LT Std;writing-mode:lr-tb;font-family:Guardi LT Std;fill-opacity:1;fill-rule:nonzero;stroke:none;font-stretch:normal;font-variant:normal;font-weight:normal;fill:#000000"
           id="text260"><tspan
             x="0"
             y="0"
             id="tspan258">, </tspan></text>
<text
           transform="matrix(1,0,0,-1,230.5078,109.667)"
           style="font-size:11px;-inkscape-font-specification:Guardi LT Std;writing-mode:lr-tb;font-family:Guardi LT Std;fill-opacity:1;fill-rule:nonzero;stroke:none;font-stretch:normal;font-variant:normal;font-weight:normal;fill:#000000"
           id="text264"><tspan
             x="0"
             y="0"
             id="tspan262"></tspan></text>
<text
           transform="matrix(1,0,0,-1,250.7031,109.667)"
           style="font-variant:normal;font-weight:normal;font-stretch:normal;font-size:11px;font-family:'Guardi LT Std';-inkscape-font-specification:'Guardi LT Std';writing-mode:lr-tb;fill:#000000;fill-opacity:1;fill-rule:nonzero;stroke:none"
           id="text268"><tspan
             x="0"
             y="0"
             id="tspan266"> ) for the launch</tspan></text>
<text
           transform="matrix(1,0,0,-1,154.3335,96.4673)"
           style="font-variant:normal;font-weight:normal;font-stretch:normal;font-size:11px;font-family:'Guardi LT Std';-inkscape-font-specification:'Guardi LT Std';writing-mode:lr-tb;fill:#000000;fill-opacity:1;fill-rule:nonzero;stroke:none"
           id="text272"><tspan
             x="0"
             y="0"
             id="tspan270">of space shuttle Challenger on January 8. </tspan></text>
<text
           transform="matrix(1,0,0,-1,328.2959,96.4673)"
           style="font-variant:normal;font-weight:normal;font-stretch:normal;font-size:11px;font-family:'Guardi LT Std';-inkscape-font-specification:'Guardi LT Std';writing-mode:lr-tb;fill:#000000;fill-opacity:1;fill-rule:nonzero;stroke:none"
           id="text276"><tspan
             x="0"
             y="9.7019997"
             id="tspan274" /></text>
<path
           d="m 48.061,61.198 h 983.812"
           style="fill:none;stroke:#000000;stroke-width:0.73400003;stroke-linecap:butt;stroke-linejoin:miter;stroke-miterlimit:10;stroke-dasharray:none;stroke-opacity:1"
           id="path278" /><path
           d="M 147.667,125.2 95.333,72.866"
           style="fill:none;stroke:#000000;stroke-width:0.30000001;stroke-linecap:butt;stroke-linejoin:miter;stroke-miterlimit:4;stroke-dasharray:none;stroke-opacity:1"
           id="path280" /><path
           d="m 94.581,74.236 -0.774,-2.889 2.889,0.774 z"
           style="fill:#000000;fill-opacity:1;fill-rule:nonzero;stroke:none"
           id="path282" /></g></g></g></svg>