<?xml version="1.0" encoding="UTF-8" standalone="no"?>
<svg
   xmlns:dc="http://purl.org/dc/elements/1.1/"
   xmlns:cc="http://creativecommons.org/ns#"
   xmlns:rdf="http://www.w3.org/1999/02/22-rdf-syntax-ns#"
   xmlns:svg="http://www.w3.org/2000/svg"
   xmlns="http://www.w3.org/2000/svg"
   xmlns:sodipodi="http://sodipodi.sourceforge.net/DTD/sodipodi-0.dtd"
   xmlns:inkscape="http://www.inkscape.org/namespaces/inkscape"
   viewBox="0 0 1440 489.60001"
   height="489.60001"
   width="1440"
   xml:space="preserve"
   id="svg2"
   version="1.1"
   sodipodi:docname="challenger.svg"
   inkscape:version="0.92.3 (2405546, 2018-03-11)"><sodipodi:namedview
     pagecolor="#ffffff"
     bordercolor="#666666"
     borderopacity="1"
     objecttolerance="10"
     gridtolerance="10"
     guidetolerance="10"
     inkscape:pageopacity="0"
     inkscape:pageshadow="2"
     inkscape:window-width="1920"
     inkscape:window-height="1020"
     id="namedview142"
     showgrid="false"
     inkscape:zoom="0.84"
     inkscape:cx="695.61084"
     inkscape:cy="244.8"
     inkscape:window-x="0"
     inkscape:window-y="28"
     inkscape:window-maximized="1"
     inkscape:current-layer="g14"
     inkscape:snap-text-baseline="true" /><metadata
     id="metadata8"><rdf:RDF><cc:Work
         rdf:about=""><dc:format>image/svg+xml</dc:format><dc:type
           rdf:resource="http://purl.org/dc/dcmitype/StillImage" /><dc:title /></cc:Work></rdf:RDF></metadata><defs
     id="defs6"><clipPath
       clipPathUnits="userSpaceOnUse"
       id="clipPath18"><path
         d="M 0,367.2 H 1080 V 0 H 0 Z"
         id="path16" /></clipPath></defs><g
     id="g10"
     transform="matrix(1.3333333,0,0,-1.3333333,0,489.6)"><g
       id="g12"><g
         id="g14"
         clip-path="url(#clipPath18)"><path
   d="m -0.033,366.433 h 1080 V -0.766 h -1080 z"
   style="fill:#eaf2f3;fill-opacity:1;fill-rule:nonzero;stroke:none"
   id="path20"
   inkscape:export-xdpi="93.342834"
   inkscape:export-ydpi="93.342834" /><path
   d="m -0.033,366.433 h 1080 V -0.766 h -1080 z"
   style="fill:#ffffff;fill-opacity:1;fill-rule:nonzero;stroke:none"
   id="path22"
   inkscape:export-xdpi="93.342834"
   inkscape:export-ydpi="93.342834" /><path
   d="m -0.033,-0.767 v 367.2 h 1080 v -367.2 h -1080"
   style="fill:none;stroke:#ffffff;stroke-width:0.73400003;stroke-linecap:butt;stroke-linejoin:miter;stroke-miterlimit:10;stroke-dasharray:none;stroke-opacity:1"
   id="path24"
   inkscape:export-xdpi="93.342834"
   inkscape:export-ydpi="93.342834" /><path
   d="m 48.061,319.96 h 983.813 V 61.198 H 48.061 Z"
   style="fill:#ffffff;fill-opacity:1;fill-rule:nonzero;stroke:none"
   id="path26"
   inkscape:export-xdpi="93.342834"
   inkscape:export-ydpi="93.342834" /><path
   d="M 48.061,61.198 V 319.96 h 983.812 V 61.198 H 48.061"
   style="fill:none;stroke:#ffffff;stroke-width:0.73400003;stroke-linecap:butt;stroke-linejoin:miter;stroke-miterlimit:10;stroke-dasharray:none;stroke-opacity:1"
   id="path28"
   inkscape:export-xdpi="93.342834"
   inkscape:export-ydpi="93.342834" /><path
   d="M 1031.873,61.198 V 319.96 M 949.895,61.198 V 319.96 M 867.916,61.198 V 319.96 M 785.937,61.198 V 319.96 M 703.924,61.198 V 319.96 M 621.945,61.198 V 319.96 M 539.967,61.198 V 319.96 M 457.988,61.198 V 319.96 M 376.009,61.198 V 319.96 M 293.997,61.198 V 319.96 M 212.018,61.198 V 319.96 M 130.039,61.198 V 319.96 m -81.978,0 h 983.812 M 48.061,233.694 h 983.812 M 48.061,147.463 h 983.812 M 48.061,61.198 h 983.812 M 48.061,319.96 h 983.812 M 48.061,233.694 h 983.812 M 48.061,147.463 h 983.812 M 48.061,61.198 h 983.812"
   style="fill:none;stroke:#000000;stroke-width:0.12;stroke-linecap:butt;stroke-linejoin:miter;stroke-miterlimit:10;stroke-dasharray:none;stroke-opacity:1"
   id="path30"
   inkscape:export-xdpi="93.342834"
   inkscape:export-ydpi="93.342834" /><path
   d="m 509.888,298.394 c 0,1.546 -1.255,2.8 -2.801,2.8 -1.546,0 -2.801,-1.254 -2.801,-2.8 0,-1.547 1.255,-2.801 2.801,-2.801 1.546,0 2.801,1.254 2.801,2.801"
   style="fill:#000000;fill-opacity:1;fill-rule:nonzero;stroke:none"
   id="path32"
   inkscape:export-xdpi="93.342834"
   inkscape:export-ydpi="93.342834" /><path
   d="m 509.888,298.394 c 0,1.546 -1.255,2.8 -2.801,2.8 -1.546,0 -2.801,-1.254 -2.801,-2.8 0,-1.547 1.255,-2.801 2.801,-2.801 1.546,0 2.801,1.254 2.801,2.801"
   style="fill:none;stroke:#000000;stroke-width:1.102;stroke-linecap:butt;stroke-linejoin:miter;stroke-miterlimit:10;stroke-dasharray:none;stroke-opacity:1"
   id="path34"
   inkscape:export-xdpi="93.342834"
   inkscape:export-ydpi="93.342834" /><path
   d="m 575.528,147.434 c 0,1.545 -1.255,2.8 -2.801,2.8 -1.546,0 -2.801,-1.255 -2.801,-2.8 0,-1.547 1.255,-2.802 2.801,-2.802 1.546,0 2.801,1.255 2.801,2.802"
   style="fill:#000000;fill-opacity:1;fill-rule:nonzero;stroke:none"
   id="path36"
   inkscape:export-xdpi="93.342834"
   inkscape:export-ydpi="93.342834" /><path
   d="m 575.528,147.434 c 0,1.545 -1.255,2.8 -2.801,2.8 -1.546,0 -2.801,-1.255 -2.801,-2.8 0,-1.547 1.255,-2.802 2.801,-2.802 1.546,0 2.801,1.255 2.801,2.802"
   style="fill:none;stroke:#000000;stroke-width:1.102;stroke-linecap:butt;stroke-linejoin:miter;stroke-miterlimit:10;stroke-dasharray:none;stroke-opacity:1"
   id="path38"
   inkscape:export-xdpi="93.342834"
   inkscape:export-ydpi="93.342834" /><path
   d="m 591.968,147.434 c 0,1.545 -1.255,2.8 -2.801,2.8 -1.547,0 -2.802,-1.255 -2.802,-2.8 0,-1.547 1.255,-2.802 2.802,-2.802 1.546,0 2.801,1.255 2.801,2.802"
   style="fill:#000000;fill-opacity:1;fill-rule:nonzero;stroke:none"
   id="path40"
   inkscape:export-xdpi="93.342834"
   inkscape:export-ydpi="93.342834" /><path
   d="m 591.968,147.434 c 0,1.545 -1.255,2.8 -2.801,2.8 -1.547,0 -2.802,-1.255 -2.802,-2.8 0,-1.547 1.255,-2.802 2.802,-2.802 1.546,0 2.801,1.255 2.801,2.802"
   style="fill:none;stroke:#000000;stroke-width:1.102;stroke-linecap:butt;stroke-linejoin:miter;stroke-miterlimit:10;stroke-dasharray:none;stroke-opacity:1"
   id="path42"
   inkscape:export-xdpi="93.342834"
   inkscape:export-ydpi="93.342834" /><path
   d="m 673.928,104.354 c 0,1.545 -1.255,2.8 -2.801,2.8 -1.547,0 -2.802,-1.255 -2.802,-2.8 0,-1.547 1.255,-2.802 2.802,-2.802 1.546,0 2.801,1.255 2.801,2.802"
   style="fill:#000000;fill-opacity:1;fill-rule:nonzero;stroke:none"
   id="path44"
   inkscape:export-xdpi="93.342834"
   inkscape:export-ydpi="93.342834" /><path
   d="m 673.928,104.354 c 0,1.545 -1.255,2.8 -2.801,2.8 -1.547,0 -2.802,-1.255 -2.802,-2.8 0,-1.547 1.255,-2.802 2.802,-2.802 1.546,0 2.801,1.255 2.801,2.802"
   style="fill:none;stroke:#000000;stroke-width:1.102;stroke-linecap:butt;stroke-linejoin:miter;stroke-miterlimit:10;stroke-dasharray:none;stroke-opacity:1"
   id="path46"
   inkscape:export-xdpi="93.342834"
   inkscape:export-ydpi="93.342834" /><path
   d="m 723.128,61.153 c 0,1.546 -1.255,2.801 -2.801,2.801 -1.547,0 -2.802,-1.255 -2.802,-2.801 0,-1.546 1.255,-2.801 2.802,-2.801 1.546,0 2.801,1.255 2.801,2.801"
   style="fill:#000000;fill-opacity:1;fill-rule:nonzero;stroke:none"
   id="path48"
   inkscape:export-xdpi="93.342834"
   inkscape:export-ydpi="93.342834" /><path
   d="m 723.128,61.153 c 0,1.546 -1.255,2.801 -2.801,2.801 -1.547,0 -2.802,-1.255 -2.802,-2.801 0,-1.546 1.255,-2.801 2.802,-2.801 1.546,0 2.801,1.255 2.801,2.801"
   style="fill:none;stroke:#000000;stroke-width:1.102;stroke-linecap:butt;stroke-linejoin:miter;stroke-miterlimit:10;stroke-dasharray:none;stroke-opacity:1"
   id="path50"
   inkscape:export-xdpi="93.342834"
   inkscape:export-ydpi="93.342834" /><path
   d="m 739.568,61.153 c 0,1.546 -1.255,2.801 -2.801,2.801 -1.546,0 -2.801,-1.255 -2.801,-2.801 0,-1.546 1.255,-2.801 2.801,-2.801 1.546,0 2.801,1.255 2.801,2.801"
   style="fill:#000000;fill-opacity:1;fill-rule:nonzero;stroke:none"
   id="path52"
   inkscape:export-xdpi="93.342834"
   inkscape:export-ydpi="93.342834" /><path
   d="m 739.568,61.153 c 0,1.546 -1.255,2.801 -2.801,2.801 -1.546,0 -2.801,-1.255 -2.801,-2.801 0,-1.546 1.255,-2.801 2.801,-2.801 1.546,0 2.801,1.255 2.801,2.801"
   style="fill:none;stroke:#000000;stroke-width:1.102;stroke-linecap:butt;stroke-linejoin:miter;stroke-miterlimit:10;stroke-dasharray:none;stroke-opacity:1"
   id="path54"
   inkscape:export-xdpi="93.342834"
   inkscape:export-ydpi="93.342834" /><path
   d="m 739.568,61.153 c 0,1.546 -1.255,2.801 -2.801,2.801 -1.546,0 -2.801,-1.255 -2.801,-2.801 0,-1.546 1.255,-2.801 2.801,-2.801 1.546,0 2.801,1.255 2.801,2.801"
   style="fill:#000000;fill-opacity:1;fill-rule:nonzero;stroke:none"
   id="path56"
   inkscape:export-xdpi="93.342834"
   inkscape:export-ydpi="93.342834" /><path
   d="m 739.568,61.153 c 0,1.546 -1.255,2.801 -2.801,2.801 -1.546,0 -2.801,-1.255 -2.801,-2.801 0,-1.546 1.255,-2.801 2.801,-2.801 1.546,0 2.801,1.255 2.801,2.801"
   style="fill:none;stroke:#000000;stroke-width:1.102;stroke-linecap:butt;stroke-linejoin:miter;stroke-miterlimit:10;stroke-dasharray:none;stroke-opacity:1"
   id="path58"
   inkscape:export-xdpi="93.342834"
   inkscape:export-ydpi="93.342834" /><path
   d="m 739.568,61.153 c 0,1.546 -1.255,2.801 -2.801,2.801 -1.546,0 -2.801,-1.255 -2.801,-2.801 0,-1.546 1.255,-2.801 2.801,-2.801 1.546,0 2.801,1.255 2.801,2.801"
   style="fill:#000000;fill-opacity:1;fill-rule:nonzero;stroke:none"
   id="path60"
   inkscape:export-xdpi="93.342834"
   inkscape:export-ydpi="93.342834" /><path
   d="m 739.568,61.153 c 0,1.546 -1.255,2.801 -2.801,2.801 -1.546,0 -2.801,-1.255 -2.801,-2.801 0,-1.546 1.255,-2.801 2.801,-2.801 1.546,0 2.801,1.255 2.801,2.801"
   style="fill:none;stroke:#000000;stroke-width:1.102;stroke-linecap:butt;stroke-linejoin:miter;stroke-miterlimit:10;stroke-dasharray:none;stroke-opacity:1"
   id="path62"
   inkscape:export-xdpi="93.342834"
   inkscape:export-ydpi="93.342834" /><path
   d="m 755.888,61.153 c 0,1.546 -1.255,2.801 -2.801,2.801 -1.546,0 -2.802,-1.255 -2.802,-2.801 0,-1.546 1.256,-2.801 2.802,-2.801 1.546,0 2.801,1.255 2.801,2.801"
   style="fill:#000000;fill-opacity:1;fill-rule:nonzero;stroke:none"
   id="path64"
   inkscape:export-xdpi="93.342834"
   inkscape:export-ydpi="93.342834" /><path
   d="m 755.888,61.153 c 0,1.546 -1.255,2.801 -2.801,2.801 -1.546,0 -2.802,-1.255 -2.802,-2.801 0,-1.546 1.256,-2.801 2.802,-2.801 1.546,0 2.801,1.255 2.801,2.801"
   style="fill:none;stroke:#000000;stroke-width:1.102;stroke-linecap:butt;stroke-linejoin:miter;stroke-miterlimit:10;stroke-dasharray:none;stroke-opacity:1"
   id="path66"
   inkscape:export-xdpi="93.342834"
   inkscape:export-ydpi="93.342834" /><path
   d="m 772.328,61.153 c 0,1.546 -1.255,2.801 -2.802,2.801 -1.546,0 -2.8,-1.255 -2.8,-2.801 0,-1.546 1.254,-2.801 2.8,-2.801 1.547,0 2.802,1.255 2.802,2.801"
   style="fill:#000000;fill-opacity:1;fill-rule:nonzero;stroke:none"
   id="path68"
   inkscape:export-xdpi="93.342834"
   inkscape:export-ydpi="93.342834" /><path
   d="m 772.328,61.153 c 0,1.546 -1.255,2.801 -2.802,2.801 -1.546,0 -2.8,-1.255 -2.8,-2.801 0,-1.546 1.254,-2.801 2.8,-2.801 1.547,0 2.802,1.255 2.802,2.801"
   style="fill:none;stroke:#000000;stroke-width:1.102;stroke-linecap:butt;stroke-linejoin:miter;stroke-miterlimit:10;stroke-dasharray:none;stroke-opacity:1"
   id="path70"
   inkscape:export-xdpi="93.342834"
   inkscape:export-ydpi="93.342834" /><path
   d="m 788.768,147.434 c 0,1.545 -1.255,2.8 -2.801,2.8 -1.546,0 -2.801,-1.255 -2.801,-2.8 0,-1.547 1.255,-2.802 2.801,-2.802 1.546,0 2.801,1.255 2.801,2.802"
   style="fill:#000000;fill-opacity:1;fill-rule:nonzero;stroke:none"
   id="path72"
   inkscape:export-xdpi="93.342834"
   inkscape:export-ydpi="93.342834" /><path
   d="m 788.768,147.434 c 0,1.545 -1.255,2.8 -2.801,2.8 -1.546,0 -2.801,-1.255 -2.801,-2.8 0,-1.547 1.255,-2.802 2.801,-2.802 1.546,0 2.801,1.255 2.801,2.802"
   style="fill:none;stroke:#000000;stroke-width:1.102;stroke-linecap:butt;stroke-linejoin:miter;stroke-miterlimit:10;stroke-dasharray:none;stroke-opacity:1"
   id="path74"
   inkscape:export-xdpi="93.342834"
   inkscape:export-ydpi="93.342834" /><path
   d="m 788.768,61.153 c 0,1.546 -1.255,2.801 -2.801,2.801 -1.546,0 -2.801,-1.255 -2.801,-2.801 0,-1.546 1.255,-2.801 2.801,-2.801 1.546,0 2.801,1.255 2.801,2.801"
   style="fill:#000000;fill-opacity:1;fill-rule:nonzero;stroke:none"
   id="path76"
   inkscape:export-xdpi="93.342834"
   inkscape:export-ydpi="93.342834" /><path
   d="m 788.768,61.153 c 0,1.546 -1.255,2.801 -2.801,2.801 -1.546,0 -2.801,-1.255 -2.801,-2.801 0,-1.546 1.255,-2.801 2.801,-2.801 1.546,0 2.801,1.255 2.801,2.801"
   style="fill:none;stroke:#000000;stroke-width:1.102;stroke-linecap:butt;stroke-linejoin:miter;stroke-miterlimit:10;stroke-dasharray:none;stroke-opacity:1"
   id="path78"
   inkscape:export-xdpi="93.342834"
   inkscape:export-ydpi="93.342834" /><path
   d="m 788.768,147.434 c 0,1.545 -1.255,2.8 -2.801,2.8 -1.546,0 -2.801,-1.255 -2.801,-2.8 0,-1.547 1.255,-2.802 2.801,-2.802 1.546,0 2.801,1.255 2.801,2.802"
   style="fill:#000000;fill-opacity:1;fill-rule:nonzero;stroke:none"
   id="path80"
   inkscape:export-xdpi="93.342834"
   inkscape:export-ydpi="93.342834" /><path
   d="m 788.768,147.434 c 0,1.545 -1.255,2.8 -2.801,2.8 -1.546,0 -2.801,-1.255 -2.801,-2.8 0,-1.547 1.255,-2.802 2.801,-2.802 1.546,0 2.801,1.255 2.801,2.802"
   style="fill:none;stroke:#000000;stroke-width:1.102;stroke-linecap:butt;stroke-linejoin:miter;stroke-miterlimit:10;stroke-dasharray:none;stroke-opacity:1"
   id="path82"
   inkscape:export-xdpi="93.342834"
   inkscape:export-ydpi="93.342834" /><path
   d="m 788.768,61.153 c 0,1.546 -1.255,2.801 -2.801,2.801 -1.546,0 -2.801,-1.255 -2.801,-2.801 0,-1.546 1.255,-2.801 2.801,-2.801 1.546,0 2.801,1.255 2.801,2.801"
   style="fill:#000000;fill-opacity:1;fill-rule:nonzero;stroke:none"
   id="path84"
   inkscape:export-xdpi="93.342834"
   inkscape:export-ydpi="93.342834" /><path
   d="m 788.768,61.153 c 0,1.546 -1.255,2.801 -2.801,2.801 -1.546,0 -2.801,-1.255 -2.801,-2.801 0,-1.546 1.255,-2.801 2.801,-2.801 1.546,0 2.801,1.255 2.801,2.801"
   style="fill:none;stroke:#000000;stroke-width:1.102;stroke-linecap:butt;stroke-linejoin:miter;stroke-miterlimit:10;stroke-dasharray:none;stroke-opacity:1"
   id="path86"
   inkscape:export-xdpi="93.342834"
   inkscape:export-ydpi="93.342834" /><path
   d="m 821.528,61.153 c 0,1.546 -1.255,2.801 -2.801,2.801 -1.546,0 -2.801,-1.255 -2.801,-2.801 0,-1.546 1.255,-2.801 2.801,-2.801 1.546,0 2.801,1.255 2.801,2.801"
   style="fill:#000000;fill-opacity:1;fill-rule:nonzero;stroke:none"
   id="path88"
   inkscape:export-xdpi="93.342834"
   inkscape:export-ydpi="93.342834" /><path
   d="m 821.528,61.153 c 0,1.546 -1.255,2.801 -2.801,2.801 -1.546,0 -2.801,-1.255 -2.801,-2.801 0,-1.546 1.255,-2.801 2.801,-2.801 1.546,0 2.801,1.255 2.801,2.801"
   style="fill:none;stroke:#000000;stroke-width:1.102;stroke-linecap:butt;stroke-linejoin:miter;stroke-miterlimit:10;stroke-dasharray:none;stroke-opacity:1"
   id="path90"
   inkscape:export-xdpi="93.342834"
   inkscape:export-ydpi="93.342834" /><path
   d="m 837.968,61.153 c 0,1.546 -1.255,2.801 -2.801,2.801 -1.547,0 -2.802,-1.255 -2.802,-2.801 0,-1.546 1.255,-2.801 2.802,-2.801 1.546,0 2.801,1.255 2.801,2.801"
   style="fill:#000000;fill-opacity:1;fill-rule:nonzero;stroke:none"
   id="path92"
   inkscape:export-xdpi="93.342834"
   inkscape:export-ydpi="93.342834" /><path
   d="m 837.968,61.153 c 0,1.546 -1.255,2.801 -2.801,2.801 -1.547,0 -2.802,-1.255 -2.802,-2.801 0,-1.546 1.255,-2.801 2.802,-2.801 1.546,0 2.801,1.255 2.801,2.801"
   style="fill:none;stroke:#000000;stroke-width:1.102;stroke-linecap:butt;stroke-linejoin:miter;stroke-miterlimit:10;stroke-dasharray:none;stroke-opacity:1"
   id="path94"
   inkscape:export-xdpi="93.342834"
   inkscape:export-ydpi="93.342834" /><path
   d="m 870.608,61.153 c 0,1.546 -1.254,2.801 -2.801,2.801 -1.546,0 -2.801,-1.255 -2.801,-2.801 0,-1.546 1.255,-2.801 2.801,-2.801 1.547,0 2.801,1.255 2.801,2.801"
   style="fill:#000000;fill-opacity:1;fill-rule:nonzero;stroke:none"
   id="path96"
   inkscape:export-xdpi="93.342834"
   inkscape:export-ydpi="93.342834" /><path
   d="m 870.608,61.153 c 0,1.546 -1.254,2.801 -2.801,2.801 -1.546,0 -2.801,-1.255 -2.801,-2.801 0,-1.546 1.255,-2.801 2.801,-2.801 1.547,0 2.801,1.255 2.801,2.801"
   style="fill:none;stroke:#000000;stroke-width:1.102;stroke-linecap:butt;stroke-linejoin:miter;stroke-miterlimit:10;stroke-dasharray:none;stroke-opacity:1"
   id="path98"
   inkscape:export-xdpi="93.342834"
   inkscape:export-ydpi="93.342834" /><path
   d="m 870.608,147.434 c 0,1.545 -1.254,2.8 -2.801,2.8 -1.546,0 -2.801,-1.255 -2.801,-2.8 0,-1.547 1.255,-2.802 2.801,-2.802 1.547,0 2.801,1.255 2.801,2.802"
   style="fill:#000000;fill-opacity:1;fill-rule:nonzero;stroke:none"
   id="path100"
   inkscape:export-xdpi="93.342834"
   inkscape:export-ydpi="93.342834" /><path
   d="m 870.608,147.434 c 0,1.545 -1.254,2.8 -2.801,2.8 -1.546,0 -2.801,-1.255 -2.801,-2.8 0,-1.547 1.255,-2.802 2.801,-2.802 1.547,0 2.801,1.255 2.801,2.802"
   style="fill:none;stroke:#000000;stroke-width:1.102;stroke-linecap:butt;stroke-linejoin:miter;stroke-miterlimit:10;stroke-dasharray:none;stroke-opacity:1"
   id="path102"
   inkscape:export-xdpi="93.342834"
   inkscape:export-ydpi="93.342834" /><path
   d="m 887.048,61.153 c 0,1.546 -1.255,2.801 -2.801,2.801 -1.547,0 -2.802,-1.255 -2.802,-2.801 0,-1.546 1.255,-2.801 2.802,-2.801 1.546,0 2.801,1.255 2.801,2.801"
   style="fill:#000000;fill-opacity:1;fill-rule:nonzero;stroke:none"
   id="path104"
   inkscape:export-xdpi="93.342834"
   inkscape:export-ydpi="93.342834" /><path
   d="m 887.048,61.153 c 0,1.546 -1.255,2.801 -2.801,2.801 -1.547,0 -2.802,-1.255 -2.802,-2.801 0,-1.546 1.255,-2.801 2.802,-2.801 1.546,0 2.801,1.255 2.801,2.801"
   style="fill:none;stroke:#000000;stroke-width:1.102;stroke-linecap:butt;stroke-linejoin:miter;stroke-miterlimit:10;stroke-dasharray:none;stroke-opacity:1"
   id="path106"
   inkscape:export-xdpi="93.342834"
   inkscape:export-ydpi="93.342834" /><path
   d="m 887.048,61.153 c 0,1.546 -1.255,2.801 -2.801,2.801 -1.547,0 -2.802,-1.255 -2.802,-2.801 0,-1.546 1.255,-2.801 2.802,-2.801 1.546,0 2.801,1.255 2.801,2.801"
   style="fill:#000000;fill-opacity:1;fill-rule:nonzero;stroke:none"
   id="path108"
   inkscape:export-xdpi="93.342834"
   inkscape:export-ydpi="93.342834" /><path
   d="m 887.048,61.153 c 0,1.546 -1.255,2.801 -2.801,2.801 -1.547,0 -2.802,-1.255 -2.802,-2.801 0,-1.546 1.255,-2.801 2.802,-2.801 1.546,0 2.801,1.255 2.801,2.801"
   style="fill:none;stroke:#000000;stroke-width:1.102;stroke-linecap:butt;stroke-linejoin:miter;stroke-miterlimit:10;stroke-dasharray:none;stroke-opacity:1"
   id="path110"
   inkscape:export-xdpi="93.342834"
   inkscape:export-ydpi="93.342834" /><path
   d="m 919.928,61.153 c 0,1.546 -1.255,2.801 -2.801,2.801 -1.547,0 -2.802,-1.255 -2.802,-2.801 0,-1.546 1.255,-2.801 2.802,-2.801 1.546,0 2.801,1.255 2.801,2.801"
   style="fill:#000000;fill-opacity:1;fill-rule:nonzero;stroke:none"
   id="path112"
   inkscape:export-xdpi="93.342834"
   inkscape:export-ydpi="93.342834" /><path
   d="m 919.928,61.153 c 0,1.546 -1.255,2.801 -2.801,2.801 -1.547,0 -2.802,-1.255 -2.802,-2.801 0,-1.546 1.255,-2.801 2.802,-2.801 1.546,0 2.801,1.255 2.801,2.801"
   style="fill:none;stroke:#000000;stroke-width:1.102;stroke-linecap:butt;stroke-linejoin:miter;stroke-miterlimit:10;stroke-dasharray:none;stroke-opacity:1"
   id="path114"
   inkscape:export-xdpi="93.342834"
   inkscape:export-ydpi="93.342834" /><path
   d="m 936.368,61.153 c 0,1.546 -1.255,2.801 -2.802,2.801 -1.545,0 -2.8,-1.255 -2.8,-2.801 0,-1.546 1.255,-2.801 2.8,-2.801 1.547,0 2.802,1.255 2.802,2.801"
   style="fill:#000000;fill-opacity:1;fill-rule:nonzero;stroke:none"
   id="path116"
   inkscape:export-xdpi="93.342834"
   inkscape:export-ydpi="93.342834" /><path
   d="m 936.368,61.153 c 0,1.546 -1.255,2.801 -2.802,2.801 -1.545,0 -2.8,-1.255 -2.8,-2.801 0,-1.546 1.255,-2.801 2.8,-2.801 1.547,0 2.802,1.255 2.802,2.801"
   style="fill:none;stroke:#000000;stroke-width:1.102;stroke-linecap:butt;stroke-linejoin:miter;stroke-miterlimit:10;stroke-dasharray:none;stroke-opacity:1"
   id="path118"
   inkscape:export-xdpi="93.342834"
   inkscape:export-ydpi="93.342834" /><path
   d="m 969.008,61.153 c 0,1.546 -1.255,2.801 -2.801,2.801 -1.547,0 -2.802,-1.255 -2.802,-2.801 0,-1.546 1.255,-2.801 2.802,-2.801 1.546,0 2.801,1.255 2.801,2.801"
   style="fill:#000000;fill-opacity:1;fill-rule:nonzero;stroke:none"
   id="path120"
   inkscape:export-xdpi="93.342834"
   inkscape:export-ydpi="93.342834" /><path
   d="m 969.008,61.153 c 0,1.546 -1.255,2.801 -2.801,2.801 -1.547,0 -2.802,-1.255 -2.802,-2.801 0,-1.546 1.255,-2.801 2.802,-2.801 1.546,0 2.801,1.255 2.801,2.801"
   style="fill:none;stroke:#000000;stroke-width:1.102;stroke-linecap:butt;stroke-linejoin:miter;stroke-miterlimit:10;stroke-dasharray:none;stroke-opacity:1"
   id="path122"
   inkscape:export-xdpi="93.342834"
   inkscape:export-ydpi="93.342834" /><path
   d="M 1031.873,61.198 V 319.96"
   style="fill:none;stroke:#000000;stroke-width:0.73400003;stroke-linecap:butt;stroke-linejoin:miter;stroke-miterlimit:10;stroke-dasharray:none;stroke-opacity:1"
   id="path124"
   inkscape:export-xdpi="93.342834"
   inkscape:export-ydpi="93.342834" /><text
   transform="matrix(1,0,0,-1,1039.5342,58.5313)"
   style="font-size:11px;-inkscape-font-specification:Century Schoolbook L;writing-mode:lr-tb;font-family:Century Schoolbook L;fill-opacity:1;fill-rule:nonzero;stroke:none;font-stretch:normal;font-variant:normal;font-weight:normal;fill:#000000"
   id="text128"
   inkscape:export-xdpi="93.342834"
   inkscape:export-ydpi="93.342834"><tspan
     x="0"
     y="0"
     id="tspan126">0</tspan></text>



<text
   transform="matrix(1,0,0,-1,1039.5342,144.7979)"
   style="font-size:7.66130018px;-inkscape-font-specification:Century Schoolbook L;writing-mode:lr-tb;font-family:Century Schoolbook L;fill-opacity:1;fill-rule:nonzero;stroke:none;font-stretch:normal;font-variant:normal;font-weight:normal;fill:#000000"
   id="text132"
   inkscape:export-xdpi="93.342834"
   inkscape:export-ydpi="93.342834"><tspan
     x="0"
     y="0"
     id="tspan130">4</tspan></text>



<text
   transform="matrix(1,0,0,-1,1039.5342,231.0283)"
   style="font-size:7.66130018px;-inkscape-font-specification:Century Schoolbook L;writing-mode:lr-tb;font-family:Century Schoolbook L;fill-opacity:1;fill-rule:nonzero;stroke:none;font-stretch:normal;font-variant:normal;font-weight:normal;fill:#000000"
   id="text136"
   inkscape:export-xdpi="93.342834"
   inkscape:export-ydpi="93.342834"><tspan
     x="0"
     y="0"
     id="tspan134">8</tspan></text>



<text
   transform="matrix(1,0,0,-1,1039.5342,317.2939)"
   style="font-size:7.66130018px;-inkscape-font-specification:Century Schoolbook L;writing-mode:lr-tb;font-family:Century Schoolbook L;fill-opacity:1;fill-rule:nonzero;stroke:none;font-stretch:normal;font-variant:normal;font-weight:normal;fill:#000000"
   id="text140"
   inkscape:export-xdpi="93.342834"
   inkscape:export-ydpi="93.342834"><tspan
     x="0"
     y="0"
     id="tspan138">12</tspan></text>



<path
   d="M 48.061,61.198 V 319.96"
   style="fill:none;stroke:#000000;stroke-width:0.73400003;stroke-linecap:butt;stroke-linejoin:miter;stroke-miterlimit:10;stroke-dasharray:none;stroke-opacity:1"
   id="path142"
   inkscape:export-xdpi="93.342834"
   inkscape:export-ydpi="93.342834" /><text
   transform="matrix(1,0,0,-1,36.4692,58.5313)"
   style="font-size:11px;-inkscape-font-specification:Century Schoolbook L;writing-mode:lr-tb;font-family:Century Schoolbook L;fill-opacity:1;fill-rule:nonzero;stroke:none;font-stretch:normal;font-variant:normal;font-weight:normal;fill:#000000"
   id="text146"
   inkscape:export-xdpi="93.342834"
   inkscape:export-ydpi="93.342834"><tspan
     x="0"
     y="0"
     id="tspan144">0</tspan></text>



<text
   transform="matrix(1,0,0,-1,36.4692,144.7979)"
   style="font-size:11px;-inkscape-font-specification:Century Schoolbook L;writing-mode:lr-tb;font-family:Century Schoolbook L;fill-opacity:1;fill-rule:nonzero;stroke:none;font-stretch:normal;font-variant:normal;font-weight:normal;fill:#000000"
   id="text150"
   inkscape:export-xdpi="93.342834"
   inkscape:export-ydpi="93.342834"><tspan
     x="0"
     y="0"
     id="tspan148">4</tspan></text>



<text
   transform="matrix(1,0,0,-1,36.4692,231.0283)"
   style="font-size:11px;-inkscape-font-specification:Century Schoolbook L;writing-mode:lr-tb;font-family:Century Schoolbook L;fill-opacity:1;fill-rule:nonzero;stroke:none;font-stretch:normal;font-variant:normal;font-weight:normal;fill:#000000"
   id="text154"
   inkscape:export-xdpi="93.342834"
   inkscape:export-ydpi="93.342834"><tspan
     x="0"
     y="0"
     id="tspan152">8</tspan></text>



<text
   transform="matrix(1,0,0,-1,32.5386,317.2939)"
   style="font-size:11px;-inkscape-font-specification:Century Schoolbook L;writing-mode:lr-tb;font-family:Century Schoolbook L;fill-opacity:1;fill-rule:nonzero;stroke:none;font-stretch:normal;font-variant:normal;font-weight:normal;fill:#000000"
   id="text158"
   inkscape:export-xdpi="93.342834"
   inkscape:export-ydpi="93.342834"><tspan
     x="0"
     y="0"
     id="tspan156">12</tspan></text>



<text
   transform="matrix(1,0,0,-1,42.9116,45.6387)"
   style="font-size:11px;-inkscape-font-specification:Century Schoolbook L;writing-mode:lr-tb;font-family:Century Schoolbook L;fill-opacity:1;fill-rule:nonzero;stroke:none;font-stretch:normal;font-variant:normal;font-weight:normal;fill:#000000"
   id="text162"
   inkscape:export-xdpi="93.342834"
   inkscape:export-ydpi="93.342834"><tspan
     x="0"
     y="0"
     id="tspan160">25°</tspan></text>



<text
   transform="matrix(1,0,0,-1,124.8911,45.6387)"
   style="font-size:11px;-inkscape-font-specification:Century Schoolbook L;writing-mode:lr-tb;font-family:Century Schoolbook L;fill-opacity:1;fill-rule:nonzero;stroke:none;font-stretch:normal;font-variant:normal;font-weight:normal;fill:#000000"
   id="text166"
   inkscape:export-xdpi="93.342834"
   inkscape:export-ydpi="93.342834"><tspan
     x="0"
     y="0"
     id="tspan164">30°</tspan></text>



<text
   transform="matrix(1,0,0,-1,206.8696,45.6387)"
   style="font-size:11px;-inkscape-font-specification:Century Schoolbook L;writing-mode:lr-tb;font-family:Century Schoolbook L;fill-opacity:1;fill-rule:nonzero;stroke:none;font-stretch:normal;font-variant:normal;font-weight:normal;fill:#000000"
   id="text170"
   inkscape:export-xdpi="93.342834"
   inkscape:export-ydpi="93.342834"><tspan
     x="0"
     y="0"
     id="tspan168">35°</tspan></text>



<text
   transform="matrix(1,0,0,-1,288.8481,45.6387)"
   style="font-size:11px;-inkscape-font-specification:Century Schoolbook L;writing-mode:lr-tb;font-family:Century Schoolbook L;fill-opacity:1;fill-rule:nonzero;stroke:none;font-stretch:normal;font-variant:normal;font-weight:normal;fill:#000000"
   id="text174"
   inkscape:export-xdpi="93.342834"
   inkscape:export-ydpi="93.342834"><tspan
     x="0"
     y="0"
     id="tspan172">40°</tspan></text>



<text
   transform="matrix(1,0,0,-1,370.8608,45.6387)"
   style="font-size:11px;-inkscape-font-specification:Century Schoolbook L;writing-mode:lr-tb;font-family:Century Schoolbook L;fill-opacity:1;fill-rule:nonzero;stroke:none;font-stretch:normal;font-variant:normal;font-weight:normal;fill:#000000"
   id="text178"
   inkscape:export-xdpi="93.342834"
   inkscape:export-ydpi="93.342834"><tspan
     x="0"
     y="0"
     id="tspan176">45°</tspan></text>



<text
   transform="matrix(1,0,0,-1,452.8398,45.6387)"
   style="font-size:11px;-inkscape-font-specification:Century Schoolbook L;writing-mode:lr-tb;font-family:Century Schoolbook L;fill-opacity:1;fill-rule:nonzero;stroke:none;font-stretch:normal;font-variant:normal;font-weight:normal;fill:#000000"
   id="text182"
   inkscape:export-xdpi="93.342834"
   inkscape:export-ydpi="93.342834"><tspan
     x="0"
     y="0"
     id="tspan180">50°</tspan></text>



<text
   transform="matrix(1,0,0,-1,534.8184,45.6387)"
   style="font-size:11px;-inkscape-font-specification:Century Schoolbook L;writing-mode:lr-tb;font-family:Century Schoolbook L;fill-opacity:1;fill-rule:nonzero;stroke:none;font-stretch:normal;font-variant:normal;font-weight:normal;fill:#000000"
   id="text186"
   inkscape:export-xdpi="93.342834"
   inkscape:export-ydpi="93.342834"><tspan
     x="0"
     y="0"
     id="tspan184">55°</tspan></text>



<text
   transform="matrix(1,0,0,-1,616.7979,45.6387)"
   style="font-size:11px;-inkscape-font-specification:Century Schoolbook L;writing-mode:lr-tb;font-family:Century Schoolbook L;fill-opacity:1;fill-rule:nonzero;stroke:none;font-stretch:normal;font-variant:normal;font-weight:normal;fill:#000000"
   id="text190"
   inkscape:export-xdpi="93.342834"
   inkscape:export-ydpi="93.342834"><tspan
     x="0"
     y="0"
     id="tspan188">60°</tspan></text>



<text
   transform="matrix(1,0,0,-1,698.7764,45.6387)"
   style="font-size:11px;-inkscape-font-specification:Century Schoolbook L;writing-mode:lr-tb;font-family:Century Schoolbook L;fill-opacity:1;fill-rule:nonzero;stroke:none;font-stretch:normal;font-variant:normal;font-weight:normal;fill:#000000"
   id="text194"
   inkscape:export-xdpi="93.342834"
   inkscape:export-ydpi="93.342834"><tspan
     x="0"
     y="0"
     id="tspan192">65°</tspan></text>



<text
   transform="matrix(1,0,0,-1,780.7891,45.6387)"
   style="font-size:11px;-inkscape-font-specification:Century Schoolbook L;writing-mode:lr-tb;font-family:Century Schoolbook L;fill-opacity:1;fill-rule:nonzero;stroke:none;font-stretch:normal;font-variant:normal;font-weight:normal;fill:#000000"
   id="text198"
   inkscape:export-xdpi="93.342834"
   inkscape:export-ydpi="93.342834"><tspan
     x="0"
     y="0"
     id="tspan196">70°</tspan></text>



<text
   transform="matrix(1,0,0,-1,862.7676,45.6387)"
   style="font-size:11px;-inkscape-font-specification:Century Schoolbook L;writing-mode:lr-tb;font-family:Century Schoolbook L;fill-opacity:1;fill-rule:nonzero;stroke:none;font-stretch:normal;font-variant:normal;font-weight:normal;fill:#000000"
   id="text202"
   inkscape:export-xdpi="93.342834"
   inkscape:export-ydpi="93.342834"><tspan
     x="0"
     y="0"
     id="tspan200">75°</tspan></text>



<text
   transform="matrix(1,0,0,-1,944.7461,45.6387)"
   style="font-size:11px;-inkscape-font-specification:Century Schoolbook L;writing-mode:lr-tb;font-family:Century Schoolbook L;fill-opacity:1;fill-rule:nonzero;stroke:none;font-stretch:normal;font-variant:normal;font-weight:normal;fill:#000000"
   id="text206"
   inkscape:export-xdpi="93.342834"
   inkscape:export-ydpi="93.342834"><tspan
     x="0"
     y="0"
     id="tspan204">80°</tspan></text>



<text
   transform="matrix(1,0,0,-1,1026.7246,45.6387)"
   style="font-size:11px;-inkscape-font-specification:Century Schoolbook L;writing-mode:lr-tb;font-family:Century Schoolbook L;fill-opacity:1;fill-rule:nonzero;stroke:none;font-stretch:normal;font-variant:normal;font-weight:normal;fill:#000000"
   id="text210"
   inkscape:export-xdpi="93.342834"
   inkscape:export-ydpi="93.342834"><tspan
     x="0"
     y="0"
     id="tspan208">85°</tspan></text>



<text
   transform="matrix(1,0,0,-1,351.2729,13.875)"
   style="font-size:18.93350029px;-inkscape-font-specification:Century Schoolbook L;writing-mode:lr-tb;font-family:Century Schoolbook L;fill-opacity:1;fill-rule:nonzero;stroke:none;font-stretch:normal;font-variant:normal;font-weight:normal;fill:#000000"
   id="text214"
   inkscape:export-xdpi="93.342834"
   inkscape:export-ydpi="93.342834"><tspan
     x="0"
     y="0"
     id="tspan212">Temperature (°F) of field joints at time of launch</tspan></text>



<text
   transform="matrix(1,0,0,-1,50.2539,347.4771)"
   style="font-size:12.80200005px;-inkscape-font-specification:Century Schoolbook L;writing-mode:lr-tb;font-family:Century Schoolbook L;fill-opacity:1;fill-rule:nonzero;stroke:none;font-stretch:normal;font-variant:normal;font-weight:normal;fill:#000000"
   id="text218"
   inkscape:export-xdpi="93.342834"
   inkscape:export-ydpi="93.342834"><tspan
     x="0"
     y="0"
     id="tspan216">O−ring damage</tspan></text>



<text
   transform="matrix(1,0,0,-1,50.2539,334.6768)"
   style="font-size:12.80200005px;-inkscape-font-specification:Century Schoolbook L;writing-mode:lr-tb;font-family:Century Schoolbook L;fill-opacity:1;fill-rule:nonzero;stroke:none;font-stretch:normal;font-variant:normal;font-weight:normal;fill:#000000"
   id="text222"
   inkscape:export-xdpi="93.342834"
   inkscape:export-ydpi="93.342834"><tspan
     x="0"
     y="0"
     id="tspan220">index, each launch</tspan></text>



<text
   transform="matrix(1,0,0,-1,480.3335,281.5332)"
   style="font-size:11px;-inkscape-font-specification:Century Schoolbook L;writing-mode:lr-tb;font-family:Century Schoolbook L;fill-opacity:1;fill-rule:nonzero;stroke:none;font-stretch:normal;font-variant:normal;font-weight:normal;fill:#000000"
   id="text226"
   inkscape:export-xdpi="93.342834"
   inkscape:export-ydpi="93.342834"><tspan
     x="0"
     y="0"
     id="tspan224">SRM 15</tspan></text>



<text
   transform="matrix(1,0,0,-1,878.334,156.1992)"
   style="font-size:11px;-inkscape-font-specification:Century Schoolbook L;writing-mode:lr-tb;font-family:Century Schoolbook L;fill-opacity:1;fill-rule:nonzero;stroke:none;font-stretch:normal;font-variant:normal;font-weight:normal;fill:#000000"
   id="text230"
   inkscape:export-xdpi="93.342834"
   inkscape:export-ydpi="93.342834"><tspan
     x="0"
     y="0"
     id="tspan228">SRM 22</tspan></text>



<path
   d="M 119,65.653 H 57 v -8.907 h 62 z"
   style="fill:#8c8c8c;fill-opacity:1;fill-rule:nonzero;stroke:none"
   id="path232"
   inkscape:export-xdpi="93.342834"
   inkscape:export-ydpi="93.342834" /><text
   transform="matrix(1,0,0,-1,154.3335,122.8672)"
   style="font-size:11px;-inkscape-font-specification:Century Schoolbook L;writing-mode:lr-tb;font-family:Century Schoolbook L;fill-opacity:1;fill-rule:nonzero;stroke:none;font-stretch:normal;font-variant:normal;font-weight:normal;fill:#000000"
   id="text236"
   inkscape:export-xdpi="93.342834"
   inkscape:export-ydpi="93.342834"><tspan
     x="0"
     y="0"
     id="tspan234"></tspan></text>



<text
   transform="matrix(1,0,0,-1,164.8711,122.8672)"
   style="font-size:11px;-inkscape-font-specification:Century Schoolbook L;writing-mode:lr-tb;font-family:Century Schoolbook L;fill-opacity:1;fill-rule:nonzero;stroke:none;font-stretch:normal;font-variant:normal;font-weight:normal;fill:#000000"
   id="text240"
   inkscape:export-xdpi="93.342834"
   inkscape:export-ydpi="93.342834"><tspan
     x="0"
     y="0"
     id="tspan238">°-</tspan></text>



<text
   transform="matrix(1,0,0,-1,173.583,122.8672)"
   style="font-size:11px;-inkscape-font-specification:Century Schoolbook L;writing-mode:lr-tb;font-family:Century Schoolbook L;fill-opacity:1;fill-rule:nonzero;stroke:none;font-stretch:normal;font-variant:normal;font-weight:normal;fill:#000000"
   id="text244"
   inkscape:export-xdpi="93.342834"
   inkscape:export-ydpi="93.342834"><tspan
     x="0"
     y="0"
     id="tspan242"></tspan></text>



<text
   transform="matrix(1,0,0,-1,183.9009,122.8672)"
   style="font-size:11px;-inkscape-font-specification:Century Schoolbook L;writing-mode:lr-tb;font-family:Century Schoolbook L;fill-opacity:1;fill-rule:nonzero;stroke:none;font-stretch:normal;font-variant:normal;font-weight:normal;fill:#000000"
   id="text248"
   inkscape:export-xdpi="93.342834"
   inkscape:export-ydpi="93.342834"><tspan
     x="0"
     y="0"
     id="tspan246">° range of forecasted temperatures</tspan></text>



<text
   transform="scale(1,-1)"
   style="font-variant:normal;font-weight:normal;font-stretch:normal;font-size:11px;font-family:'Century Schoolbook L';-inkscape-font-specification:'Century Schoolbook L';writing-mode:lr-tb;fill:#000000;fill-opacity:1;fill-rule:nonzero;stroke:none"
   id="text252"
   x="149.8335"
   y="-109.667"
   inkscape:export-xdpi="93.342834"
   inkscape:export-ydpi="93.342834"><tspan
     x="149.8335"
     y="-109.667"
     id="tspan250">(as of January 7 </tspan></text>



<text
   transform="matrix(1,0,0,-1,215.3721,109.667)"
   style="font-size:11px;-inkscape-font-specification:Century Schoolbook L;writing-mode:lr-tb;fill-rule:nonzero;fill-opacity:1;font-weight:normal;stroke:none;font-stretch:normal;font-variant:normal;font-family:Century Schoolbook L;fill:#000000"
   id="text256"><tspan
     x="0"
     y="9.7019997"
     id="tspan254" /></text>






<text
   transform="matrix(1,0,0,-1,230.5078,109.667)"
   style="font-size:11px;-inkscape-font-specification:Century Schoolbook L;writing-mode:lr-tb;font-family:Century Schoolbook L;fill-opacity:1;fill-rule:nonzero;stroke:none;font-stretch:normal;font-variant:normal;font-weight:normal;fill:#000000"
   id="text264"
   inkscape:export-xdpi="93.342834"
   inkscape:export-ydpi="93.342834"><tspan
     x="0"
     y="0"
     id="tspan262"></tspan></text>



<text
   transform="matrix(1,0,0,-1,250.7031,109.667)"
   style="font-size:11px;-inkscape-font-specification:Century Schoolbook L;writing-mode:lr-tb;fill-rule:nonzero;fill-opacity:1;font-weight:normal;stroke:none;font-stretch:normal;font-variant:normal;font-family:Century Schoolbook L;fill:#000000"
   id="text268"
   inkscape:export-xdpi="93.342834"
   inkscape:export-ydpi="93.342834"><tspan
     x="0"
     y="0"
     id="tspan266"> ) for the launch</tspan></text>



<text
   transform="matrix(1,0,0,-1,154.3335,96.4673)"
   style="font-size:11px;-inkscape-font-specification:Century Schoolbook L;writing-mode:lr-tb;fill-rule:nonzero;fill-opacity:1;font-weight:normal;stroke:none;font-stretch:normal;font-variant:normal;font-family:Century Schoolbook L;fill:#000000"
   id="text272"
   inkscape:export-xdpi="93.342834"
   inkscape:export-ydpi="93.342834"><tspan
     x="0"
     y="0"
     id="tspan270">of space shuttle Challenger on January 8. </tspan></text>



<text
   transform="matrix(1,0,0,-1,328.2959,96.4673)"
   style="font-size:11px;-inkscape-font-specification:Century Schoolbook L;writing-mode:lr-tb;fill-rule:nonzero;fill-opacity:1;font-weight:normal;stroke:none;font-stretch:normal;font-variant:normal;font-family:Century Schoolbook L;fill:#000000"
   id="text276"><tspan
     x="0"
     y="9.7019997"
     id="tspan274" /></text>



<path
   d="m 48.061,61.198 h 983.812"
   style="fill:none;stroke:#000000;stroke-width:0.73400003;stroke-linecap:butt;stroke-linejoin:miter;stroke-miterlimit:10;stroke-dasharray:none;stroke-opacity:1"
   id="path278"
   inkscape:export-xdpi="93.342834"
   inkscape:export-ydpi="93.342834" /><path
   d="M 147.667,125.2 95.333,72.866"
   style="fill:none;stroke:#000000;stroke-width:0.30000001;stroke-linecap:butt;stroke-linejoin:miter;stroke-miterlimit:4;stroke-dasharray:none;stroke-opacity:1"
   id="path280"
   inkscape:export-xdpi="93.342834"
   inkscape:export-ydpi="93.342834" /><path
   d="m 94.581,74.236 -0.774,-2.889 2.889,0.774 z"
   style="fill:#000000;fill-opacity:1;fill-rule:nonzero;stroke:none"
   id="path282"
   inkscape:export-xdpi="93.342834"
   inkscape:export-ydpi="93.342834" /></g></g></g></svg>